<svg viewBox="0 0 16 16" xmlns="http://www.w3.org/2000/svg" xmlns:xlink="http://www.w3.org/1999/xlink" width="16.000000" height="16.000000" fill="none">
	<rect id="Icon / Quotes" width="16.000000" height="16.000000" x="0.000000" y="0.000000" />
	<path id="Vector" d="M9.5735 9.48683C9.12784 9.84614 8.57263 10.0421 8.00017 10.0421C7.4277 10.0421 6.87249 9.84614 6.42683 9.48683C6.29069 9.37367 6.11517 9.31923 5.93888 9.33548C5.7626 9.35174 5.59999 9.43735 5.48683 9.5735C5.37367 9.70964 5.31923 9.88516 5.33549 10.0614C5.35174 10.2377 5.43735 10.4003 5.5735 10.5135C6.25439 11.0819 7.11321 11.3933 8.00017 11.3933C8.88713 11.3933 9.74594 11.0819 10.4268 10.5135C10.563 10.4003 10.6486 10.2377 10.6648 10.0614C10.6811 9.88516 10.6267 9.70964 10.5135 9.5735C10.4575 9.50608 10.3887 9.45037 10.3111 9.40953C10.2336 9.36869 10.1487 9.34353 10.0614 9.33548C9.88516 9.31923 9.70964 9.37367 9.5735 9.48683L9.5735 9.48683ZM6.14017 7.02683C6.26507 7.151 6.43404 7.22069 6.61017 7.22069C6.78629 7.22069 6.95526 7.151 7.08017 7.02683C7.20433 6.90192 7.27403 6.73295 7.27403 6.55683C7.27403 6.38071 7.20433 6.21174 7.08017 6.08683C6.69865 5.72482 6.19276 5.52302 5.66683 5.52302C5.1409 5.52302 4.63502 5.72482 4.2535 6.08683C4.18371 6.14659 4.12703 6.22014 4.08702 6.30285C4.047 6.38556 4.02451 6.47565 4.02097 6.56746C4.01742 6.65927 4.03289 6.75083 4.06641 6.83638C4.09992 6.92193 4.15076 6.99963 4.21573 7.0646C4.2807 7.12957 4.3584 7.18041 4.44395 7.21392C4.5295 7.24744 4.62106 7.26291 4.71287 7.25936C4.80468 7.25582 4.89477 7.23333 4.97748 7.19331C5.06019 7.1533 5.13373 7.09662 5.1935 7.02683C5.25547 6.96434 5.32921 6.91475 5.41045 6.8809C5.49169 6.84706 5.57882 6.82963 5.66683 6.82963C5.75484 6.82963 5.84198 6.84706 5.92322 6.8809C6.00446 6.91475 6.07819 6.96434 6.14017 7.02683L6.14017 7.02683ZM11.7468 6.08683C11.3653 5.72482 10.8594 5.52302 10.3335 5.52302C9.80757 5.52302 9.30169 5.72482 8.92017 6.08683C8.81095 6.21436 8.75388 6.37841 8.76036 6.5462C8.76684 6.71398 8.83639 6.87314 8.95512 6.99187C9.07385 7.1106 9.23301 7.18016 9.4008 7.18664C9.56858 7.19312 9.73263 7.13605 9.86017 7.02683C9.92214 6.96434 9.99588 6.91475 10.0771 6.8809C10.1584 6.84706 10.2455 6.82963 10.3335 6.82963C10.4215 6.82963 10.5086 6.84706 10.5899 6.8809C10.6711 6.91475 10.7449 6.96434 10.8068 7.02683C10.9317 7.151 11.1007 7.22069 11.2768 7.22069C11.453 7.22069 11.6219 7.151 11.7468 7.02683C11.871 6.90192 11.9407 6.73295 11.9407 6.55683C11.9407 6.38071 11.871 6.21174 11.7468 6.08683L11.7468 6.08683ZM8.00017 1.3335C6.68162 1.3335 5.39269 1.72449 4.29636 2.45703C3.20004 3.18957 2.34555 4.23077 1.84097 5.44894C1.33638 6.66711 1.20436 8.00756 1.4616 9.30077C1.71883 10.594 2.35377 11.7819 3.28612 12.7142C4.21847 13.6466 5.40636 14.2815 6.69956 14.5387C7.99277 14.796 9.33322 14.6639 10.5514 14.1594C11.7696 13.6548 12.8108 12.8003 13.5433 11.704C14.2758 10.6076 14.6668 9.3187 14.6668 8.00016C14.6668 7.12468 14.4944 6.25778 14.1594 5.44894C13.8243 4.6401 13.3333 3.90517 12.7142 3.28612C12.0952 2.66706 11.3602 2.176 10.5514 1.84097C9.74255 1.50593 8.87564 1.3335 8.00017 1.3335L8.00017 1.3335ZM8.00017 13.3335C6.94533 13.3335 5.91419 13.0207 5.03712 12.4347C4.16006 11.8486 3.47648 11.0157 3.07281 10.0411C2.66914 9.0666 2.56352 7.99425 2.76931 6.95968C2.9751 5.92512 3.48305 4.97481 4.22893 4.22893C4.97481 3.48305 5.92512 2.9751 6.95968 2.76931C7.99425 2.56352 9.0666 2.66914 10.0411 3.07281C11.0157 3.47647 11.8486 4.16006 12.4347 5.03712C13.0207 5.91418 13.3335 6.94533 13.3335 8.00016C13.3335 9.41465 12.7716 10.7712 11.7714 11.7714C10.7712 12.7716 9.41465 13.3335 8.00017 13.3335L8.00017 13.3335Z" fill="rgb(249,250,251)" fill-rule="nonzero" />
</svg>
