<svg viewBox="0 0 108.8 108.8" xmlns="http://www.w3.org/2000/svg" xmlns:xlink="http://www.w3.org/1999/xlink" width="108.799805" height="108.800049" fill="none">
	<rect id="Icon / Delivery" width="108.800011" height="108.800011" x="0.000000" y="0.000000" />
	<g id="Group">
		<path id="Vector" d="M107.672 59.4087L98.3235 43.2378C98.0924 42.8389 97.7549 42.507 97.3459 42.2766C96.9369 42.0461 96.4715 41.9255 95.9978 41.9272L81.5375 41.9272L81.5375 28.5773C81.5363 28.2124 81.3855 27.8628 81.1181 27.6047C80.8506 27.3467 80.4882 27.2012 80.1099 27.2001L22.3378 27.2001C21.9595 27.2012 21.5971 27.3467 21.3296 27.6047C21.0622 27.8628 20.9114 28.2124 20.9102 28.5773L20.9102 72.13C20.9102 72.6602 21.1285 73.1687 21.5171 73.5436C21.9058 73.9185 22.4329 74.1292 22.9825 74.1292L107.557 74.1292C107.72 74.1298 107.882 74.0991 108.033 74.0391C108.185 73.979 108.322 73.8907 108.437 73.7792C108.553 73.6677 108.645 73.5352 108.707 73.3894C108.769 73.2436 108.801 73.0874 108.8 72.9297L108.8 63.6292C108.801 62.1529 108.413 60.7007 107.672 59.4087Z" fill="rgb(139,92,246)" fill-rule="nonzero" />
		<path id="Vector" d="M108.801 63.6289L108.801 69.8485L90.7576 69.8485C89.6437 69.8485 88.5754 69.4216 87.7878 68.6618C87.0001 67.9019 86.5576 66.8714 86.5576 65.7968L86.5576 41.9269L95.9983 41.9269C96.4719 41.9252 96.9374 42.0458 97.3463 42.2763C97.7553 42.5067 98.0928 42.8386 98.3239 43.2375L107.672 59.4084C108.413 60.7004 108.801 62.1526 108.801 63.6289Z" fill="rgb(167,139,250)" fill-rule="nonzero" />
		<path id="Vector" d="M102.836 74.1358C102.844 75.6644 102.353 77.1567 101.432 78.4006C100.492 79.7048 99.1453 80.6852 97.5876 81.1991C96.0298 81.713 94.3427 81.7333 92.7721 81.2572C91.2015 80.7811 89.8297 79.8335 88.8566 78.5524C87.8836 77.2713 87.3602 75.7239 87.3628 74.1358C87.3628 72.1563 88.1779 70.2579 89.6288 68.8583C91.0798 67.4586 93.0476 66.6722 95.0995 66.6722C97.1514 66.6722 99.1193 67.4586 100.57 68.8583C102.021 70.2579 102.836 72.1563 102.836 74.1358Z" fill="rgb(165,180,252)" fill-rule="nonzero" />
		<path id="Vector" d="M81.5373 28.5773L81.5373 70.0709L34.4285 70.0709C33.3154 70.0709 32.2133 69.8594 31.1849 69.4485C30.1566 69.0376 29.2222 68.4353 28.4352 67.676C27.6481 66.9168 27.0238 66.0154 26.5978 65.0234C26.1719 64.0313 25.9526 62.9681 25.9526 61.8943L25.9526 27.2001L80.1097 27.2001C80.488 27.2012 80.8504 27.3467 81.1178 27.6047C81.3853 27.8628 81.5361 28.2124 81.5373 28.5773Z" fill="rgb(167,139,250)" fill-rule="nonzero" />
		<path id="Vector" d="M102.836 74.1358C102.844 75.6645 102.353 77.1567 101.432 78.4007C100.753 78.599 100.046 78.6964 99.3364 78.6894C97.2847 78.6888 95.3172 77.9023 93.8664 76.5028C92.4156 75.1032 91.6003 73.2052 91.5997 71.2259C91.5927 69.6802 92.0924 68.1719 93.0273 66.9166C94.1787 66.612 95.3875 66.5679 96.5594 66.7877C97.7314 67.0075 98.835 67.4853 99.7842 68.1839C100.733 68.8825 101.503 69.7831 102.032 70.8154C102.561 71.8477 102.837 72.984 102.836 74.1358Z" fill="rgb(196,181,253)" fill-rule="nonzero" />
		<path id="Vector" d="M52.9393 74.136C52.9381 75.5258 52.5346 76.8877 51.7744 78.0682C51.0142 79.2488 49.9274 80.2011 48.6364 80.8179C47.3454 81.4348 45.9014 81.6916 44.4673 81.5596C43.0331 81.4275 41.6657 80.9117 40.519 80.0704C39.3723 79.229 38.4919 78.0955 37.9769 76.7975C37.462 75.4995 37.3329 74.0886 37.6044 72.7237C37.8758 71.3588 38.5369 70.0941 39.5132 69.0721C40.4895 68.05 41.7422 67.3113 43.1302 66.939C43.8015 66.7407 44.5005 66.6433 45.2025 66.6503C46.2202 66.6511 47.2278 66.8455 48.1675 67.2223C49.1073 67.5991 49.9608 68.1508 50.6794 68.8461C51.3979 69.5413 51.9673 70.3663 52.3551 71.274C52.7429 72.1817 52.9414 73.1542 52.9393 74.136Z" fill="rgb(165,180,252)" fill-rule="nonzero" />
		<path id="Vector" d="M52.9393 74.136C52.9363 75.663 52.4459 77.1521 51.5347 78.4008C50.8555 78.5992 50.149 78.6965 49.4394 78.6896C47.3877 78.689 45.4201 77.9025 43.9694 76.503C42.5186 75.1034 41.7033 73.2054 41.7027 71.2261C41.6991 69.6878 42.1987 68.1875 43.1303 66.939C43.8016 66.7407 44.5006 66.6433 45.2026 66.6503C46.2203 66.6511 47.2278 66.8455 48.1676 67.2223C49.1073 67.5991 49.9609 68.1508 50.6794 68.8461C51.398 69.5413 51.9674 70.3663 52.3552 71.274C52.7429 72.1817 52.9414 73.1542 52.9393 74.136Z" fill="rgb(196,181,253)" fill-rule="nonzero" />
		<g id="Group">
			<path id="Vector" d="M27.7417 62.9806L5.82096 62.9806C5.36295 62.9806 4.92369 62.805 4.59983 62.4926C4.27596 62.1802 4.09402 61.7564 4.09402 61.3146C4.09402 60.8728 4.27596 60.449 4.59983 60.1366C4.92369 59.8242 5.36295 59.6486 5.82096 59.6486L27.7417 59.6486C28.1997 59.6486 28.639 59.8242 28.9628 60.1366C29.2867 60.449 29.4686 60.8728 29.4686 61.3146C29.4686 61.7564 29.2867 62.1802 28.9628 62.4926C28.639 62.805 28.1997 62.9806 27.7417 62.9806ZM45.2069 55.4038L14.6215 55.4038C14.1635 55.4038 13.7242 55.2282 13.4004 54.9158C13.0765 54.6034 12.8945 54.1796 12.8945 53.7378C12.8945 53.296 13.0765 52.8722 13.4004 52.5598C13.7242 52.2473 14.1635 52.0718 14.6215 52.0718L45.2069 52.0718C45.6649 52.0718 46.1041 52.2473 46.428 52.5598C46.7519 52.8722 46.9338 53.296 46.9338 53.7378C46.9338 54.1796 46.7519 54.6034 46.428 54.9158C46.1041 55.2282 45.6649 55.4038 45.2069 55.4038ZM13.6705 46.6075L1.72695 46.6075C1.26893 46.6075 0.829677 46.4319 0.505811 46.1195C0.181946 45.8071 2.5564e-16 45.3833 0 44.9415C0 44.4997 0.181946 44.0759 0.505811 43.7635C0.829677 43.4511 1.26893 43.2755 1.72695 43.2755L13.6705 43.2755C14.1285 43.2755 14.5678 43.4511 14.8917 43.7635C15.2155 44.0759 15.3975 44.4997 15.3975 44.9415C15.3975 45.3833 15.2155 45.8071 14.8917 46.1195C14.5678 46.4319 14.1285 46.6075 13.6705 46.6075ZM32.8212 37.4047L11.7386 37.4047C11.2806 37.4047 10.8414 37.2292 10.5175 36.9167C10.1936 36.6043 10.0117 36.1806 10.0117 35.7387C10.0117 35.2969 10.1936 34.8731 10.5175 34.5607C10.8414 34.2483 11.2806 34.0728 11.7386 34.0728L32.8212 34.0728C33.2792 34.0728 33.7185 34.2483 34.0423 34.5607C34.3662 34.8731 34.5482 35.2969 34.5482 35.7387C34.5482 36.1806 34.3662 36.6043 34.0423 36.9167C33.7185 37.2292 33.2792 37.4047 32.8212 37.4047Z" fill="rgb(165,180,252)" fill-rule="nonzero" />
		</g>
	</g>
</svg>
