<svg viewBox="0 0 108.8 108.8" xmlns="http://www.w3.org/2000/svg" xmlns:xlink="http://www.w3.org/1999/xlink" width="108.799805" height="108.800049" fill="none">
	<rect id="Icon / garantee" width="108.800011" height="108.800011" x="0.000000" y="0.000000" />
	<g id="Group">
		<g id="Group">
			<path id="Vector" d="M30.2123 92.674C15.5247 87.6011 12.2493 75.7412 11.8714 61.4266C11.7833 58.0921 11.8571 54.7783 11.9444 51.4459C18.4281 50.3161 24.6369 48.2354 30.3296 44.8558C33.7615 46.8916 37.2386 48.3899 41.0274 49.5868C41.2911 49.6701 41.3438 49.9946 41.8973 49.9946C42.1653 49.9946 42.1093 49.9198 42.2955 49.9728C44.5268 50.6088 46.4127 51.0442 48.717 51.4459C48.927 59.4044 49.1035 68.4364 46.7543 76.0433C44.1031 84.6276 38.7583 89.8041 30.4469 92.674L30.2123 92.674ZM42.217 60.6528C42.0282 60.4602 41.7722 60.352 41.5054 60.352C41.2385 60.3521 40.9826 60.4603 40.7938 60.653L27.8755 73.8476L21.7729 67.6148C21.6796 67.5192 21.5687 67.4434 21.4466 67.3916C21.3245 67.3399 21.1936 67.3133 21.0614 67.3132C20.9292 67.3132 20.7983 67.3398 20.6762 67.3915C20.5541 67.4432 20.4432 67.519 20.3498 67.6146C20.2561 67.7102 20.1818 67.8237 20.1311 67.9486C20.0804 68.0736 20.0543 68.2075 20.0543 68.3427C20.0543 68.478 20.0804 68.6119 20.1311 68.7369C20.1818 68.8618 20.2561 68.9753 20.3498 69.0709L27.1634 76.0314C27.2569 76.1271 27.368 76.2031 27.4903 76.2549C27.6126 76.3067 27.7438 76.3334 27.8762 76.3334C28.0086 76.3334 28.1397 76.3067 28.262 76.2549C28.3843 76.2031 28.4954 76.1271 28.589 76.0314L42.2172 62.1082C42.3109 62.0127 42.3852 61.8992 42.4359 61.7744C42.4865 61.6495 42.5126 61.5156 42.5126 61.3805C42.5126 61.2453 42.4865 61.1114 42.4357 60.9866C42.385 60.8617 42.3107 60.7483 42.217 60.6528ZM48.9985 37.9526L48.9985 27.9146C48.9993 27.741 49.0672 27.5747 49.1874 27.452C49.3075 27.3292 49.4703 27.2598 49.6403 27.259L73.5439 27.259L73.5439 37.9526L48.9985 37.9526ZM75.5583 16.6876C75.5591 16.514 75.627 16.3477 75.7472 16.2249C75.8674 16.1021 76.0302 16.0328 76.2001 16.032L87.5561 16.032C87.7261 16.0328 87.8888 16.1021 88.009 16.2249C88.1292 16.3477 88.1971 16.514 88.1979 16.6876L88.1979 37.9526L75.5583 37.9526L75.5583 16.6876ZM27.2126 32.5005C27.2126 33.0373 26.7711 33.4662 26.3507 33.7201C25.7984 34.0537 25.1227 34.2074 24.4848 34.2074L14.1753 34.2074C13.5378 34.2074 12.8623 34.0535 12.3104 33.7198C11.8902 33.4659 11.4487 33.0373 11.4487 32.5005L11.4487 31.0779C11.4487 30.5415 11.8904 30.1131 12.3104 29.8594C12.8625 29.5259 13.5378 29.3721 14.1753 29.3721L23.5105 29.3779C23.6856 29.4096 23.7316 29.4623 23.9325 29.4597L26.4171 29.4399C26.6916 29.5134 27.145 29.7491 27.2126 29.9771L27.2126 32.5005Z" fill="rgb(196,181,253)" fill-rule="evenodd" />
			<path id="Vector" d="M42.4763 60.3885C42.604 60.5187 42.7053 60.6733 42.7744 60.8436C42.8436 61.0138 42.8792 61.1963 42.8792 61.3807C42.8792 61.565 42.8436 61.7475 42.7744 61.9177C42.7053 62.088 42.604 62.2426 42.4763 62.3729L28.8481 76.2961C28.7205 76.4265 28.569 76.5299 28.4023 76.6005C28.2355 76.6711 28.0568 76.7074 27.8763 76.7074C27.6958 76.7074 27.5171 76.6711 27.3504 76.6005C27.1836 76.5299 27.0321 76.4265 26.9045 76.2961L20.091 69.3356C19.9632 69.2053 19.8619 69.0506 19.7928 68.8802C19.7237 68.7099 19.6881 68.5273 19.6881 68.3429C19.6881 68.1585 19.7237 67.9759 19.7928 67.8056C19.8619 67.6352 19.9632 67.4805 20.091 67.3502C20.6256 66.8015 21.4961 66.8015 22.0323 67.3502L27.8758 73.3184L40.5352 60.3885C41.0709 59.841 41.9414 59.841 42.4763 60.3885ZM77.94 59.5773L77.94 48.3502C77.94 47.5745 78.5559 46.9465 79.3142 46.9465C80.0725 46.9465 80.6871 47.5743 80.6871 48.3502L80.6871 59.5773C80.6871 60.3519 80.0725 60.9798 79.3142 60.9798C78.5559 60.9798 77.94 60.3517 77.94 59.5773ZM66.9499 59.5773L66.9499 48.3502C66.9499 47.9781 67.0946 47.6212 67.3522 47.3581C67.6098 47.0949 67.9592 46.9471 68.3234 46.9471C68.6877 46.9471 69.0371 47.0949 69.2946 47.3581C69.5522 47.6212 69.6969 47.9781 69.6969 48.3502L69.6969 59.5773C69.6969 59.9492 69.5523 60.306 69.2948 60.569C69.0374 60.832 68.6882 60.9798 68.324 60.9798C68.1437 60.9798 67.9651 60.9436 67.7984 60.8732C67.6317 60.8028 67.4802 60.6995 67.3526 60.5692C67.2251 60.439 67.1238 60.2844 67.0547 60.1142C66.9856 59.944 66.95 59.7615 66.9499 59.5773ZM55.9598 59.5773L55.9598 48.3502C55.9597 48.166 55.9951 47.9835 56.0641 47.8132C56.133 47.6429 56.2341 47.4882 56.3616 47.3578C56.4891 47.2275 56.6405 47.1241 56.8071 47.0535C56.9737 46.9829 57.1523 46.9465 57.3327 46.9465C57.6971 46.9465 58.0466 47.0945 58.3043 47.3577C58.562 47.6209 58.7068 47.978 58.7068 48.3502L58.7068 59.5773C58.7065 59.9494 58.5616 60.3061 58.304 60.5691C58.0463 60.8321 57.6969 60.9798 57.3327 60.9798C56.9686 60.9797 56.6194 60.8319 56.362 60.5689C56.1045 60.3059 55.9599 59.9492 55.9598 59.5773ZM84.0383 82.5446C84.0383 84.6862 82.3308 86.4305 80.2309 86.4305C78.1322 86.4305 76.4247 84.6862 76.4247 82.5446C76.4247 80.3994 78.1322 78.6551 80.2309 78.6551C82.3308 78.6551 84.0383 80.3994 84.0383 82.5446ZM59.8228 82.5446C59.8228 84.6862 58.1153 86.4305 56.0166 86.4305C53.9192 86.4305 52.2104 84.6862 52.2104 82.5446C52.2104 80.3994 53.9189 78.6551 56.0166 78.6551C58.1153 78.6551 59.8228 80.3994 59.8228 82.5446ZM30.3297 92.3194C38.7374 89.4163 43.8514 84.2001 46.4051 75.9305C48.689 68.5359 48.5686 59.7059 48.3591 51.7628C46.6508 51.4644 44.9563 51.0884 43.2808 50.6359C42.9174 50.5388 42.5585 50.4361 42.1973 50.3332C42.0989 50.3562 41.9984 50.3681 41.8975 50.3687C41.5294 50.3687 41.1762 50.2115 40.9193 49.9442C37.0669 48.7273 33.4551 47.1428 30.3297 45.2886C25.0781 48.4054 18.632 50.6595 12.3026 51.763C12.0943 59.7061 11.9703 68.5361 14.2554 75.9307C16.8103 84.2001 21.9243 89.4163 30.3297 92.3194ZM95.635 40.3857L40.256 40.3857L42.8722 47.6109C45.2528 48.2993 47.4857 48.8006 49.9033 49.1706C50.5608 49.2723 51.0562 49.841 51.0736 50.5198C51.2206 55.95 51.3782 61.8438 50.8028 67.5402L80.9534 67.5425C83.7501 67.5425 86.1208 65.9944 87.2959 63.4012L96.854 42.3377C96.9514 42.1286 96.9951 41.8977 96.9811 41.6666C96.967 41.4356 96.8957 41.2119 96.7738 41.0167C96.652 40.8215 96.4835 40.6612 96.2843 40.5508C96.0851 40.4404 95.8616 40.3836 95.635 40.3857ZM49.3651 27.9146C49.3651 27.7609 49.4914 27.6331 49.6406 27.6331L73.1777 27.6331L73.1777 37.5784L49.3651 37.5784L49.3651 27.9146ZM76.2003 16.4061L87.5563 16.4061C87.7057 16.4061 87.8318 16.5339 87.8318 16.6876L87.8318 37.5784L75.9248 37.5784L75.9248 16.6876C75.9248 16.5339 76.0509 16.4061 76.2003 16.4061ZM26.8465 30.0905L26.8465 32.5004C26.8465 33.1166 25.8151 33.8332 24.485 33.8332L14.1755 33.8332C12.8465 33.8332 11.8151 33.1166 11.8151 32.5004L11.8151 31.0779C11.8151 30.463 12.8465 29.7464 14.1755 29.7464L23.4466 29.7464C23.5636 29.7677 23.6414 29.8359 23.9374 29.8339L26.3243 29.8019C26.6114 29.8787 26.7956 30.0124 26.8465 30.0905ZM80.9534 70.3489C84.8475 70.3489 88.1512 68.1931 89.7892 64.5828L99.3474 43.5182C100.608 40.7425 98.6271 37.5784 95.635 37.5784L90.5786 37.5784L90.5786 16.6876C90.5786 14.9846 89.2231 13.5999 87.5563 13.5999L76.2003 13.5999C74.5332 13.5999 73.1777 14.9846 73.1777 16.6876L73.1777 24.8269L49.6406 24.8269C47.9726 24.8269 46.6181 26.2116 46.6181 27.9146L46.6181 37.5784L39.2418 37.5784L37.0041 31.3996C36.0214 28.6834 33.5673 26.9391 30.7381 26.9391C30.7091 26.9391 30.6778 26.9391 30.649 26.9414L26.5695 26.9934C26.3427 26.9582 26.1137 26.94 25.8842 26.9389L14.1755 26.9389C11.3115 26.9389 9.06689 28.7577 9.06689 31.0779L9.06689 32.5004C9.06689 34.8206 11.3115 36.6394 14.1755 36.6394L24.485 36.6394C27.3499 36.6394 29.5933 34.8206 29.5933 32.5004L29.5772 29.7606L30.7383 29.7464C32.4294 29.7464 33.8395 30.7492 34.4276 32.3728L39.5498 46.5256C36.4441 45.3974 33.5571 44.0198 31.0451 42.4575C30.8297 42.3236 30.5824 42.2527 30.3302 42.2527C30.0781 42.2527 29.8308 42.3236 29.6154 42.4575C24.2143 45.8138 17.3774 48.1596 10.7582 49.1708C10.4392 49.2197 10.1472 49.3817 9.93321 49.6283C9.71926 49.875 9.59702 50.1906 9.58789 50.5201C9.35877 58.9799 9.10062 68.5681 11.6357 76.7749C14.4833 85.9939 20.4611 91.9989 29.907 95.1315C30.1828 95.2227 30.4797 95.2227 30.7555 95.1315C39.56 92.2106 45.3492 86.7934 48.4018 78.6054C49.0062 78.686 50.049 78.6551 50.6857 78.6551C47.599 83.0687 50.6924 89.2365 56.0164 89.2365C61.3537 89.2365 64.4275 83.0484 61.3459 78.6551L74.9012 78.6551C71.8197 83.048 74.8932 89.2365 80.2307 89.2365C85.5563 89.2365 88.6473 83.0678 85.5614 78.6551L90.8053 78.6551C91.5658 78.6551 92.1794 78.0272 92.1794 77.2526C92.1794 76.478 91.5658 75.8489 90.8053 75.8489L49.2979 75.8489C49.798 74.0655 50.1741 72.2243 50.4555 70.3477L80.9534 70.3489Z" fill="rgb(139,92,246)" fill-rule="evenodd" />
		</g>
	</g>
</svg>
