<svg viewBox="0 0 108.8 108.8" xmlns="http://www.w3.org/2000/svg" xmlns:xlink="http://www.w3.org/1999/xlink" width="108.799805" height="108.800049" fill="none">
	<rect id="Icon / Package" width="108.800011" height="108.800011" x="0.000000" y="0.000000" />
	<g id="Group">
		<path id="Vector" d="M51.7193 9.06665L9.06689 30.6278L9.06689 80.1571L57.6526 99.7333L57.6721 99.7333L57.6721 99.7236L99.7336 74.957L99.7336 25.4354L51.7193 9.06665Z" fill="rgb(221,214,254)" fill-rule="nonzero" />
		<path id="Vector" d="M99.7336 25.4354L51.7193 9.06665L9.06689 30.6278L9.06689 80.1571L57.6526 99.7333L57.6721 99.7333L57.6721 50.1884L57.6624 50.1845L99.7336 25.4354Z" fill="rgb(196,181,253)" fill-rule="nonzero" />
		<path id="Vector" d="M57.6721 50.1883L57.6721 99.7332L57.6526 99.7332L9.06689 80.157L9.06689 30.6316L14.7817 32.9324L57.6721 50.1883Z" fill="rgb(139,92,246)" fill-rule="nonzero" />
		<path id="Vector" d="M57.6717 50.1884L57.6717 92.9285L25.7077 80.0402C22.4811 78.7379 19.7173 76.5015 17.7712 73.6179C15.825 70.7343 14.7852 67.3352 14.7852 63.8567L14.7852 32.9325L57.6717 50.1884Z" fill="rgb(167,139,250)" fill-rule="nonzero" />
		<path id="Vector" d="M79.3029 18.4648L78.4447 18.9328L36.9391 41.8431L36.8611 57.7732L30.2881 55.3164L25.9971 53.6981L25.9971 37.4561L69.2581 15.0526L79.3029 18.4648Z" fill="rgb(91,33,182)" fill-rule="nonzero" />
		<path id="Vector" d="M78.4926 18.9327L36.987 41.8431L36.909 57.7732L30.3359 55.3164L30.3359 39.6788L73.6164 17.2754L78.4926 18.9327Z" fill="rgb(109,40,217)" fill-rule="nonzero" />
	</g>
</svg>
