<svg viewBox="0 0 108.8 108.8" xmlns="http://www.w3.org/2000/svg" xmlns:xlink="http://www.w3.org/1999/xlink" width="108.799805" height="108.800049" fill="none">
	<rect id="Icon / Board" width="108.800011" height="108.800011" x="0.000000" y="0.000000" />
	<g id="Group">
		<path id="Vector" d="M54.1866 15.0409L54.1866 15.3295L31.374 15.3295L31.374 15.0409L32.8912 9.06665L52.6694 9.06665L54.1866 15.0409Z" fill="rgb(237,233,254)" fill-rule="nonzero" />
		<path id="Vector" d="M9.06689 15.0409L76.4964 15.0409L76.4964 99.7333L9.06689 99.7333L9.06689 15.0409Z" fill="rgb(76,29,149)" fill-rule="nonzero" />
		<path id="Vector" d="M15.1592 20.9606L70.3947 20.9606L70.3947 93.8254L15.1592 93.8254L15.1592 20.9606Z" fill="rgb(196,181,253)" fill-rule="nonzero" />
		<path id="Vector" d="M70.3952 20.9606L70.3952 89.3603L31.835 89.3603C30.5854 89.3603 29.348 89.1217 28.1936 88.6582C27.0392 88.1946 25.9904 87.5152 25.107 86.6587C24.2237 85.8022 23.5232 84.7855 23.0456 83.6666C22.5679 82.5477 22.3225 81.3485 22.3232 80.1376L22.3232 20.9606L70.3952 20.9606Z" fill="rgb(167,139,250)" fill-rule="nonzero" />
		<path id="Vector" d="M22.6931 28.1088C22.2462 28.1088 21.8176 28.2806 21.5014 28.5867C21.1853 28.8927 21.0074 29.3078 21.0068 29.7408L21.0068 38.0977C21.0074 38.5307 21.1853 38.9458 21.5014 39.2518C21.8176 39.5578 22.2462 39.7297 22.6931 39.7297L31.3175 39.7297C31.7641 39.7297 32.1925 39.5578 32.5084 39.2517C32.8242 38.9456 33.0017 38.5305 33.0017 38.0977L33.0017 29.8851C33.0017 29.6516 32.9542 29.4205 32.862 29.2048C32.7697 28.9892 32.6345 28.7933 32.4641 28.6283C32.2936 28.4634 32.0913 28.3326 31.8687 28.2434C31.646 28.1543 31.4074 28.1085 31.1665 28.1088L22.6931 28.1088ZM22.6931 51.3389C22.2459 51.3389 21.817 51.5111 21.5007 51.8175C21.1845 52.1239 21.0068 52.5395 21.0068 52.9729L21.0068 61.3298C21.0074 61.7628 21.1853 62.1779 21.5014 62.4839C21.8176 62.7899 22.2462 62.9618 22.6931 62.9618L31.3175 62.9618C31.7641 62.9618 32.1925 62.7899 32.5084 62.4838C32.8242 62.1778 33.0017 61.7627 33.0017 61.3298L33.0017 53.1172C33.0017 52.6456 32.8083 52.1933 32.4642 51.8598C32.12 51.5263 31.6533 51.3389 31.1665 51.3389L22.6931 51.3389ZM22.6931 74.2337C22.4717 74.2335 22.2525 74.2755 22.0479 74.3574C21.8434 74.4393 21.6575 74.5595 21.5008 74.711C21.3442 74.8626 21.22 75.0426 21.1352 75.2407C21.0505 75.4389 21.0068 75.6513 21.0068 75.8657L21.0068 84.2324C21.0074 84.6654 21.1853 85.0805 21.5014 85.3865C21.8176 85.6925 22.2462 85.8644 22.6931 85.8644L31.3175 85.8644C31.7641 85.8644 32.1925 85.6925 32.5084 85.3864C32.8242 85.0804 33.0017 84.6653 33.0017 84.2324L33.0017 76.01C33.0017 75.7766 32.9542 75.5455 32.862 75.3298C32.7697 75.1142 32.6345 74.9183 32.4641 74.7533C32.2936 74.5883 32.0913 74.4575 31.8687 74.3684C31.646 74.2792 31.4074 74.2335 31.1665 74.2337L22.6931 74.2337Z" fill="rgb(109,40,217)" fill-rule="nonzero" />
		<g id="Group">
			<path id="Vector" d="M63.336 35.3286L51.4377 35.3286C51.0375 35.3286 50.6536 35.1746 50.3706 34.9003C50.0876 34.6261 49.9286 34.2541 49.9286 33.8663C49.9286 33.4784 50.0876 33.1065 50.3706 32.8322C50.6536 32.558 51.0375 32.4039 51.4377 32.4039L63.336 32.4039C63.7362 32.4039 64.1201 32.558 64.4031 32.8322C64.6862 33.1065 64.8452 33.4784 64.8452 33.8663C64.8452 34.2541 64.6862 34.6261 64.4031 34.9003C64.1201 35.1746 63.7362 35.3286 63.336 35.3286ZM45.3447 35.3286L39.2276 35.3286C38.8273 35.3286 38.4434 35.1746 38.1604 34.9003C37.8774 34.6261 37.7184 34.2541 37.7184 33.8663C37.7184 33.4784 37.8774 33.1065 38.1604 32.8322C38.4434 32.558 38.8273 32.4039 39.2276 32.4039L45.3447 32.4039C45.745 32.4039 46.1288 32.558 46.4119 32.8322C46.6949 33.1065 46.8539 33.4784 46.8539 33.8663C46.8539 34.2541 46.6949 34.6261 46.4119 34.9003C46.1288 35.1746 45.745 35.3286 45.3447 35.3286ZM63.336 57.9719L57.4402 57.9719C57.0399 57.9719 56.6561 57.8178 56.373 57.5436C56.09 57.2693 55.931 56.8974 55.931 56.5095C55.931 56.1217 56.09 55.7497 56.373 55.4755C56.6561 55.2012 57.0399 55.0472 57.4402 55.0472L63.336 55.0472C63.7362 55.0472 64.1201 55.2012 64.4031 55.4755C64.6862 55.7497 64.8452 56.1217 64.8452 56.5095C64.8452 56.8974 64.6862 57.2693 64.4031 57.5436C64.1201 57.8178 63.7362 57.9719 63.336 57.9719ZM51.2969 57.9719L39.2235 57.9719C38.8233 57.9719 38.4394 57.8178 38.1564 57.5436C37.8734 57.2693 37.7144 56.8974 37.7144 56.5095C37.7144 56.1217 37.8734 55.7497 38.1564 55.4755C38.4394 55.2012 38.8233 55.0472 39.2235 55.0472L51.2969 55.0472C51.6971 55.0472 52.081 55.2012 52.364 55.4755C52.647 55.7497 52.806 56.1217 52.806 56.5095C52.806 56.8974 52.647 57.2693 52.364 57.5436C52.081 57.8178 51.6971 57.9719 51.2969 57.9719ZM28.0396 36.479L27.9813 36.479C27.7815 36.4712 27.5853 36.4251 27.404 36.3435C27.2227 36.2618 27.0598 36.1462 26.9248 36.0033L25.0555 34.0145C24.922 33.8727 24.8187 33.7069 24.7514 33.5265C24.6841 33.3461 24.6541 33.1546 24.6632 32.9629C24.6722 32.7713 24.7202 32.5832 24.8042 32.4095C24.8883 32.2358 25.0068 32.0799 25.1531 31.9506C25.2993 31.8213 25.4705 31.7211 25.6567 31.6559C25.8428 31.5907 26.0405 31.5616 26.2383 31.5704C26.436 31.5792 26.6301 31.6256 26.8094 31.7071C26.9886 31.7885 27.1496 31.9034 27.283 32.0451L28.1241 32.9362L36.0201 25.7628C36.3117 25.4978 36.7001 25.3559 37.0997 25.3683C37.4994 25.3807 37.8775 25.5465 38.151 25.8291C38.4245 26.1117 38.571 26.488 38.5582 26.8753C38.5453 27.2625 38.3743 27.6289 38.0826 27.894L29.0719 36.0832C28.7925 36.3379 28.4232 36.4796 28.0396 36.479ZM28.0396 59.7092L27.9813 59.7092C27.7815 59.7014 27.5853 59.6553 27.404 59.5736C27.2227 59.492 27.0598 59.3764 26.9248 59.2334L25.0555 57.2446C24.922 57.1029 24.8187 56.9371 24.7514 56.7567C24.6841 56.5762 24.6541 56.3847 24.6632 56.1931C24.6722 56.0014 24.7202 55.8134 24.8042 55.6397C24.8883 55.466 25.0068 55.31 25.1531 55.1807C25.2993 55.0514 25.4705 54.9513 25.6567 54.8861C25.8428 54.8208 26.0405 54.7918 26.2383 54.8006C26.436 54.8094 26.6301 54.8558 26.8094 54.9372C26.9886 55.0187 27.1496 55.1336 27.283 55.2753L28.1241 56.1664L36.0201 48.993C36.3117 48.7279 36.7001 48.586 37.0997 48.5985C37.4994 48.6109 37.8775 48.7767 38.151 49.0593C38.4245 49.3419 38.571 49.7182 38.5582 50.1054C38.5453 50.4927 38.3743 50.8591 38.0826 51.1241L29.0719 59.3134C28.7926 59.5683 28.4233 59.7099 28.0396 59.7092ZM28.0396 82.602L27.9813 82.602C27.7815 82.5942 27.5853 82.5481 27.404 82.4665C27.2227 82.3848 27.0598 82.2692 26.9248 82.1263L25.0495 80.1375C24.9081 79.9971 24.7974 79.8306 24.7239 79.648C24.6503 79.4653 24.6154 79.2702 24.6212 79.0742C24.6271 78.8781 24.6735 78.6853 24.7579 78.507C24.8422 78.3288 24.9626 78.1688 25.112 78.0365C25.2615 77.9043 25.4368 77.8025 25.6276 77.7373C25.8185 77.6721 26.0209 77.6447 26.2229 77.6568C26.4248 77.6689 26.6223 77.7202 26.8033 77.8077C26.9844 77.8952 27.1455 78.0171 27.277 78.1662L28.1181 79.0573L36.014 71.8819C36.3086 71.632 36.6918 71.5028 37.0828 71.5215C37.4738 71.5402 37.842 71.7054 38.1096 71.9822C38.3773 72.259 38.5235 72.6258 38.5173 73.0051C38.5111 73.3844 38.3531 73.7465 38.0766 74.015L29.0658 82.2043C28.7884 82.4585 28.4214 82.6008 28.0396 82.602ZM63.7304 81.4614L51.8341 81.4614C51.4339 81.4614 51.05 81.3073 50.767 81.0331C50.484 80.7588 50.325 80.3869 50.325 79.999C50.325 79.6112 50.484 79.2392 50.767 78.965C51.05 78.6907 51.4339 78.5367 51.8341 78.5367L63.7304 78.5367C64.1306 78.5367 64.5145 78.6907 64.7975 78.965C65.0806 79.2392 65.2395 79.6112 65.2395 79.999C65.2395 80.3869 65.0806 80.7588 64.7975 81.0331C64.5145 81.3073 64.1306 81.4614 63.7304 81.4614ZM45.7331 81.4614L39.622 81.4614C39.2217 81.4614 38.8378 81.3073 38.5548 81.0331C38.2718 80.7588 38.1128 80.3869 38.1128 79.999C38.1128 79.6112 38.2718 79.2392 38.5548 78.965C38.8378 78.6907 39.2217 78.5367 39.622 78.5367L45.7331 78.5367C46.1333 78.5367 46.5172 78.6907 46.8002 78.965C47.0832 79.2392 47.2422 79.6112 47.2422 79.999C47.2422 80.3869 47.0832 80.7588 46.8002 81.0331C46.5172 81.3073 46.1333 81.4614 45.7331 81.4614Z" fill="rgb(237,233,254)" fill-rule="nonzero" />
		</g>
		<path id="Vector" d="M99.7337 49.2721C99.7337 49.6599 99.5748 50.0319 99.2917 50.3061C99.0087 50.5804 98.6248 50.7344 98.2246 50.7344C97.8243 50.7344 97.4405 50.5804 97.1574 50.3061C96.8744 50.0319 96.7154 49.6599 96.7154 49.2721L96.7154 35.8963C96.6148 35.5648 96.2124 34.7849 94.4416 34.7849L92.9244 34.7849L92.9244 32.1136C92.9277 32.0287 92.921 31.9436 92.9043 31.8602L94.4436 31.8602C95.6453 31.7214 96.8566 32.0282 97.8345 32.7189C98.8123 33.4097 99.4844 34.4333 99.7156 35.5843L99.7337 49.2721ZM93.0331 84.7198L88.4653 99.7334L83.8774 84.7198L93.0331 84.7198Z" fill="rgb(109,40,217)" fill-rule="nonzero" />
		<path id="Vector" d="M83.8774 49.272L93.0331 49.272L93.0331 84.7197L83.8774 84.7197L83.8774 49.272Z" fill="rgb(196,181,253)" fill-rule="nonzero" />
		<path id="Vector" d="M93.0345 32.1135L93.0345 49.2719L83.8789 49.2719L83.8789 32.1135C83.8789 30.937 84.3612 29.8087 85.2197 28.9768C86.0782 28.145 87.2426 27.6776 88.4567 27.6776C89.6708 27.6776 90.8352 28.145 91.6937 28.9768C92.5522 29.8087 93.0345 30.937 93.0345 32.1135Z" fill="rgb(109,40,217)" fill-rule="nonzero" />
		<path id="Vector" d="M93.0326 84.7197L88.4648 99.7334L88.4648 84.7197L93.0326 84.7197Z" fill="rgb(124,58,237)" fill-rule="nonzero" />
		<path id="Vector" d="M88.4648 49.272L93.0326 49.272L93.0326 84.7197L88.4648 84.7197L88.4648 49.272Z" fill="rgb(167,139,250)" fill-rule="nonzero" />
		<path id="Vector" d="M93.0345 32.1137L93.0345 49.2721L88.4668 49.2721L88.4668 27.6876C89.6319 27.687 90.7529 28.1193 91.599 28.8956C92.445 29.6718 92.9516 30.7329 93.0144 31.8602C93.0311 31.9437 93.0379 32.0288 93.0345 32.1137Z" fill="rgb(124,58,237)" fill-rule="nonzero" />
	</g>
</svg>
