<svg viewBox="0 0 108.8 108.8" xmlns="http://www.w3.org/2000/svg" xmlns:xlink="http://www.w3.org/1999/xlink" width="108.799805" height="108.800049" fill="none">
	<rect id="Icon / best support" width="108.800011" height="108.800011" x="0.000000" y="0.000000" />
	<g id="Group">
		<g id="Group">
			<path id="Vector" d="M48.4797 68.9363C48.0361 68.4334 47.4616 68.0725 46.8248 67.8966C46.1879 67.7207 45.5154 67.7372 44.8874 67.9442L38.7377 69.9636C38.4013 70.0746 38.0461 70.1118 37.6949 70.0729C37.3437 70.034 37.0043 69.9197 36.6985 69.7374C36.3926 69.5552 36.1272 69.309 35.9191 69.0147C35.7111 68.7204 35.565 68.3844 35.4903 68.0284L34.1106 61.528C33.9687 60.864 33.6454 60.2558 33.1789 59.7752C32.7125 59.2946 32.1223 58.9618 31.4783 58.816L31.1878 58.7505L9.06689 92.1627L27.0849 90.9226L32.1001 108.8L54.6998 74.709C54.3469 74.7112 53.9976 74.6362 53.6749 74.489C53.3522 74.3417 53.0634 74.1256 52.8276 73.8549L48.4797 68.9363Z" fill="rgb(167,139,250)" fill-rule="nonzero" />
			<path id="Vector" d="M48.4796 68.9363C48.1571 68.5693 47.7639 68.2757 47.3251 68.0742C46.8863 67.8728 46.4115 67.7679 45.9312 67.7663C45.5769 67.7661 45.2247 67.823 44.8873 67.9348L38.7376 69.9542C38.4011 70.0652 38.0457 70.1025 37.6944 70.0636C37.343 70.0246 37.0035 69.9104 36.6975 69.7282C36.3915 69.546 36.1258 69.2998 35.9175 69.0054C35.7092 68.7111 35.5629 68.3751 35.488 68.019L34.8072 64.7946L16.5781 91.6456L27.0826 90.9225L30.0077 101.345L50.4788 71.199L48.4796 68.9363ZM60.3162 68.9363C60.7598 68.4334 61.3342 68.0725 61.9711 67.8966C62.6079 67.7207 63.2804 67.7372 63.9084 67.9442L70.0582 69.9635C70.3946 70.0746 70.7498 70.1118 71.101 70.0729C71.4522 70.0339 71.7916 69.9197 72.0974 69.7374C72.4032 69.5552 72.6687 69.309 72.8767 69.0147C73.0848 68.7203 73.2308 68.3844 73.3055 68.0284L74.6852 61.528C74.8273 60.8643 75.1507 60.2564 75.6171 59.7763C76.0836 59.2961 76.6737 58.9637 77.3176 58.8183L77.608 58.7528L99.7335 92.1627L81.7154 90.9225L76.7003 108.8L54.0961 74.709C54.4489 74.7112 54.7983 74.6362 55.121 74.4889C55.4437 74.3417 55.7324 74.1256 55.9682 73.8549L60.3162 68.9363Z" fill="rgb(167,139,250)" fill-rule="nonzero" />
			<path id="Vector" d="M60.3161 68.9362C60.7598 68.4333 61.3342 68.0724 61.971 67.8965C62.6079 67.7206 63.2804 67.7371 63.9084 67.9441L70.0581 69.9634C70.3945 70.0745 70.7497 70.1117 71.1009 70.0728C71.4521 70.0338 71.7915 69.9196 72.0974 69.7373C72.4032 69.5551 72.6686 69.3089 72.8767 69.0146C73.0848 68.7202 73.2308 68.3843 73.3055 68.0283L73.9863 64.8038L92.2131 91.6455L81.7063 90.9224L78.7835 101.345L58.3169 71.1989L60.3161 68.9362Z" fill="rgb(167,139,250)" fill-rule="nonzero" />
		</g>
		<path id="Vector" d="M63.334 71.817L69.2341 73.7545C70.0822 74.0333 70.9773 74.1264 71.8622 74.0278C72.7472 73.9293 73.6024 73.6412 74.3731 73.1822C75.1439 72.7231 75.8131 72.1032 76.3381 71.362C76.8631 70.6208 77.2321 69.7748 77.4217 68.8781L78.7424 62.6444L79.995 62.3636L77.6055 58.7531L77.315 58.8186C76.672 58.9647 76.0829 59.2975 75.6173 59.7776C75.1516 60.2577 74.8289 60.8652 74.6872 61.5282L73.3075 68.0286C73.2328 68.3846 73.0868 68.7206 72.8787 69.0149C72.6707 69.3092 72.4052 69.5554 72.0994 69.7377C71.7936 69.9199 71.4542 70.0342 71.103 70.0731C70.7518 70.1121 70.3966 70.0748 70.0602 69.9638L63.9104 67.9444C63.2824 67.7374 62.6099 67.7209 61.9731 67.8968C61.3362 68.0727 60.7618 68.4336 60.3182 68.9366L55.9702 73.8505C55.7839 74.0969 55.5455 74.2964 55.2732 74.4335C55.0009 74.5707 54.7018 74.642 54.3988 74.642C54.0957 74.642 53.7966 74.5707 53.5243 74.4335C53.252 74.2964 53.0136 74.0969 52.8273 73.8505L48.4816 68.9366C48.1591 68.5695 47.7659 68.2759 47.3271 68.0745C46.8883 67.873 46.4135 67.7681 45.9332 67.7666C45.5789 67.7664 45.2267 67.8232 44.8893 67.935L38.7396 69.9544C38.4031 70.0655 38.0477 70.1027 37.6964 70.0638C37.345 70.0249 37.0055 69.9106 36.6995 69.7284C36.3935 69.5462 36.1278 69.3 35.9195 69.0057C35.7112 68.7113 35.5649 68.3754 35.49 68.0193L34.1126 61.5189C33.9685 60.8567 33.644 60.2508 33.1773 59.7724C32.7105 59.294 32.1209 58.9631 31.4779 58.8186L31.1897 58.7531L28.8115 62.3519L30.1368 62.6491L31.4575 68.8827C31.6475 69.7793 32.0171 70.6251 32.5424 71.366C33.0677 72.1068 33.7373 72.7263 34.5083 73.185C35.2792 73.6436 36.1345 73.9311 37.0195 74.0292C37.9044 74.1273 38.7995 74.0337 39.6473 73.7545L45.5316 71.8007L49.7138 76.5344C50.4325 77.3327 51.3324 77.9342 52.3326 78.2847L54.3976 75.1655L56.4808 78.3057C57.5068 77.9595 58.4306 77.3499 59.1654 76.5344L63.334 71.817Z" fill="rgb(124,58,237)" fill-rule="nonzero" />
		<path id="Vector" d="M48.4796 68.9363C48.1571 68.5693 47.7639 68.2756 47.3251 68.0742C46.8863 67.8727 46.4115 67.7679 45.9312 67.7663C45.5769 67.7661 45.2247 67.8229 44.8874 67.9348L38.7376 69.9542C38.4011 70.0652 38.0457 70.1025 37.6944 70.0635C37.343 70.0246 37.0035 69.9104 36.6975 69.7282C36.3915 69.5459 36.1258 69.2998 35.9175 69.0054C35.7092 68.7111 35.5629 68.3751 35.488 68.019L34.8072 64.7946L16.5781 91.6456L27.0826 90.9225L30.0077 101.345L50.4789 71.199L48.4796 68.9363ZM73.9908 64.8039L73.31 68.0284C73.2354 68.3844 73.0893 68.7203 72.8813 69.0146C72.6732 69.309 72.4078 69.5552 72.1019 69.7374C71.7961 69.9196 71.4567 70.0339 71.1055 70.0729C70.7543 70.1118 70.3991 70.0746 70.0627 69.9635L63.913 67.9441C63.285 67.7372 62.6125 67.7207 61.9756 67.8966C61.3388 68.0725 60.7643 68.4333 60.3207 68.9363L58.3215 71.199L78.7926 101.345L81.7154 90.9225L92.2222 91.6456L73.9908 64.8039Z" fill="rgb(139,92,246)" fill-rule="nonzero" />
		<path id="Vector" d="M50.479 71.199L48.4797 68.9363C48.1572 68.5693 47.764 68.2756 47.3252 68.0742C46.8864 67.8727 46.4117 67.7679 45.9314 67.7663C45.577 67.7661 45.2248 67.8229 44.8875 67.9348L38.7377 69.9542C38.4012 70.0652 38.0458 70.1025 37.6945 70.0635C37.3432 70.0246 37.0036 69.9104 36.6976 69.7282C36.3916 69.5459 36.1259 69.2998 35.9177 69.0054C35.7094 68.7111 35.5631 68.3751 35.4881 68.019L34.8074 64.7946L31.6304 69.4745C32.1446 71.1372 33.2776 72.5217 34.7807 73.3241C36.2838 74.1264 38.0341 74.2811 39.6477 73.7542L45.532 71.8004L48.0985 74.7066L50.4813 71.1967L50.479 71.199ZM69.2323 73.7542C70.8307 74.2793 72.5653 74.1354 74.0617 73.3535C75.5582 72.5717 76.6966 71.2147 77.2315 69.5751L73.991 64.8039L73.3102 68.0284C73.2355 68.3844 73.0895 68.7203 72.8814 69.0146C72.6734 69.309 72.4079 69.5552 72.1021 69.7374C71.7962 69.9196 71.4568 70.0339 71.1056 70.0729C70.7544 70.1118 70.3992 70.0746 70.0628 69.9635L63.9131 67.9441C63.2851 67.7372 62.6126 67.7207 61.9757 67.8966C61.3389 68.0725 60.7645 68.4333 60.3208 68.9363L58.3216 71.199L60.7338 74.7534L63.3344 71.8121L69.2323 73.7542Z" fill="rgb(167,139,250)" fill-rule="nonzero" />
		<path id="Vector" d="M77.7554 15.8965L84.0617 17.3169C84.4682 17.409 84.8516 17.5874 85.1874 17.8409C85.5232 18.0943 85.8041 18.4172 86.0121 18.7889C86.2201 19.1606 86.3506 19.5729 86.3954 19.9996C86.4401 20.4262 86.3981 20.8578 86.272 21.2668L84.3136 27.608C84.14 28.1702 84.1264 28.7719 84.2744 29.3417C84.4225 29.9116 84.7259 30.4257 85.1487 30.8231L89.9142 35.3042C90.222 35.5932 90.4679 35.9453 90.6362 36.338C90.8044 36.7306 90.8913 37.1552 90.8913 37.5844C90.8913 38.0137 90.8044 38.4383 90.6362 38.8309C90.4679 39.2236 90.222 39.5757 89.9142 39.8647L85.1487 44.3481C84.7256 44.7453 84.4221 45.2595 84.274 45.8294C84.126 46.3993 84.1397 47.0011 84.3136 47.5632L86.272 53.9045C86.3981 54.3133 86.4401 54.7447 86.3954 55.1712C86.3506 55.5977 86.22 56.0099 86.012 56.3814C85.804 56.7529 85.5231 57.0756 85.1873 57.3288C84.8515 57.582 84.4681 57.7602 84.0617 57.852L77.7554 59.2747C77.1964 59.4007 76.6841 59.6895 76.2795 60.1068C75.8748 60.524 75.5948 61.0522 75.4725 61.6287L74.0928 68.1291C74.0044 68.5485 73.8319 68.9443 73.5866 69.291C73.3412 69.6378 73.0283 69.9278 72.6679 70.1426C72.3074 70.3574 71.9075 70.4922 71.4936 70.5383C71.0798 70.5845 70.6611 70.5409 70.2645 70.4105L64.1148 68.3912C63.5697 68.2113 62.986 68.1968 62.4331 68.3495C61.8803 68.5022 61.3817 68.8155 60.9968 69.2523L56.6489 74.1662C56.3688 74.4835 56.0275 74.7371 55.6469 74.9105C55.2663 75.084 54.8547 75.1736 54.4386 75.1736C54.0225 75.1736 53.6109 75.084 53.2303 74.9105C52.8497 74.7371 52.5084 74.4835 52.2283 74.1662L47.8804 69.2523C47.4955 68.8155 46.9969 68.5022 46.4441 68.3495C45.8912 68.1968 45.3075 68.2113 44.7624 68.3912L38.6127 70.4105C38.2161 70.5409 37.7974 70.5845 37.3836 70.5383C36.9697 70.4922 36.5697 70.3574 36.2093 70.1426C35.8489 69.9278 35.536 69.6378 35.2906 69.291C35.0452 68.9443 34.8728 68.5485 34.7844 68.1291L33.4047 61.6287C33.2824 61.0522 33.0023 60.524 32.5977 60.1068C32.1931 59.6895 31.6808 59.4007 31.1218 59.2747L24.8155 57.852C24.4091 57.7602 24.0257 57.582 23.6899 57.3288C23.3541 57.0756 23.0732 56.7529 22.8652 56.3814C22.6572 56.0099 22.5266 55.5977 22.4818 55.1712C22.4371 54.7447 22.4791 54.3133 22.6052 53.9045L24.5636 47.5632C24.7375 47.0011 24.7512 46.3993 24.6032 45.8294C24.4551 45.2595 24.1515 44.7453 23.7285 44.3481L18.963 39.8647C18.6552 39.5757 18.4093 39.2236 18.241 38.8309C18.0728 38.4383 17.9858 38.0137 17.9858 37.5844C17.9858 37.1552 18.0728 36.7306 18.241 36.338C18.4093 35.9453 18.6552 35.5932 18.963 35.3042L23.7285 30.8231C24.1513 30.4257 24.4547 29.9116 24.6028 29.3417C24.7508 28.7719 24.7372 28.1702 24.5636 27.608L22.6052 21.2668C22.4791 20.8578 22.437 20.4262 22.4818 19.9996C22.5265 19.5729 22.6571 19.1606 22.8651 18.7889C23.0731 18.4172 23.3539 18.0943 23.6898 17.8409C24.0256 17.5874 24.409 17.409 24.8155 17.3169L31.1218 15.8965C31.6808 15.7705 32.1931 15.4817 32.5977 15.0644C33.0023 14.6472 33.2824 14.119 33.4047 13.5425L34.7844 7.03981C34.8731 6.62057 35.0457 6.22506 35.2912 5.87859C35.5367 5.53213 35.8496 5.24234 36.21 5.02779C36.5704 4.81325 36.9703 4.67867 37.384 4.63267C37.7977 4.58667 38.2162 4.63028 38.6127 4.76069L44.7624 6.78007C45.3076 6.95879 45.891 6.97266 46.4436 6.82005C46.9962 6.66744 47.4948 6.35473 47.8804 5.91897L52.2283 1.00505C52.5088 0.688352 52.8502 0.435399 53.2307 0.262331C53.6113 0.0892628 54.0227 -0.00012207 54.4386 -0.00012207C54.8545 -0.00012207 55.2659 0.0892628 55.6464 0.262331C56.027 0.435399 56.3684 0.688352 56.6489 1.00505L60.9968 5.91897C61.3824 6.35473 61.881 6.66744 62.4336 6.82005C62.9862 6.97266 63.5696 6.95879 64.1148 6.78007L70.2645 4.76069C70.661 4.63028 71.0795 4.58667 71.4932 4.63267C71.9069 4.67867 72.3068 4.81325 72.6672 5.02779C73.0275 5.24234 73.3405 5.53213 73.586 5.87859C73.8315 6.22506 74.0041 6.62057 74.0928 7.03981L75.4725 13.5425C75.5948 14.119 75.8748 14.6472 76.2795 15.0644C76.6841 15.4817 77.1964 15.7705 77.7554 15.8965Z" fill="rgb(109,40,217)" fill-rule="nonzero" />
		<path id="Vector" d="M78.0623 37.595C78.0574 42.1087 76.8363 46.5323 74.5353 50.3721C72.2342 54.212 68.9438 57.3171 65.0311 59.3409C61.1183 61.3647 56.7372 62.2278 52.3765 61.8336C48.0158 61.4395 43.847 59.8038 40.3354 57.109C36.8237 54.4141 34.1073 50.7661 32.4892 46.5721C30.871 42.3781 30.4149 37.8029 31.1715 33.3571C31.9282 28.9113 33.868 24.7697 36.7744 21.3944C39.6808 18.0191 43.4395 15.543 47.6312 14.2422C49.8386 13.5536 52.1329 13.2066 54.4391 13.2126C57.5431 13.2129 60.6167 13.844 63.4842 15.0697C66.3516 16.2954 68.9567 18.0918 71.1505 20.3561C73.3444 22.6205 75.084 25.3084 76.27 28.2664C77.4559 31.2243 78.0649 34.3942 78.0623 37.595Z" fill="rgb(167,139,250)" fill-rule="nonzero" />
		<path id="Vector" d="M78.0616 37.595C78.0639 41.721 77.0487 45.7798 75.1115 49.3901C73.1743 53.0003 70.3788 56.0434 66.9875 58.2334C64.7802 58.922 62.4859 59.269 60.1797 59.263C55.0487 59.266 50.0562 57.5469 45.9566 54.3653C41.8569 51.1838 38.873 46.7127 37.4556 41.6278C36.0382 36.5429 36.2645 31.1204 38.1001 26.1798C39.9358 21.2392 43.2811 17.0489 47.6306 14.2422C49.838 13.5536 52.1323 13.2066 54.4385 13.2126C57.5425 13.2129 60.6161 13.844 63.4835 15.0697C66.351 16.2954 68.9561 18.0918 71.1499 20.3561C73.3438 22.6205 75.0834 25.3084 76.2693 28.2664C77.4553 31.2243 78.0643 34.3942 78.0616 37.595Z" fill="rgb(139,92,246)" fill-rule="nonzero" />
		<path id="Vector" d="M56.1587 52.6245C55.7074 52.6245 55.2745 52.4396 54.9553 52.1105C54.6361 51.7814 54.4568 51.335 54.4568 50.8696L54.4568 29.108L50.068 32.199C49.8836 32.3343 49.6748 32.4302 49.454 32.4812C49.2332 32.5322 49.0047 32.5373 48.782 32.4962C48.5592 32.4551 48.3467 32.3686 48.1567 32.2418C47.9668 32.1149 47.8033 31.9503 47.6758 31.7575C47.5483 31.5647 47.4593 31.3477 47.4141 31.119C47.369 30.8904 47.3685 30.6548 47.4127 30.4259C47.4569 30.1971 47.5449 29.9796 47.6716 29.7862C47.7983 29.5929 47.9611 29.4275 48.1505 29.2998L55.1988 24.3344C55.4547 24.1543 55.7533 24.0495 56.0626 24.0315C56.372 24.0134 56.6802 24.0828 56.9541 24.2321C57.228 24.3814 57.4572 24.6049 57.6169 24.8786C57.7767 25.1523 57.861 25.4658 57.8607 25.7852L57.8607 50.8696C57.8607 51.335 57.6814 51.7814 57.3622 52.1105C57.043 52.4396 56.6101 52.6245 56.1587 52.6245Z" fill="rgb(245,243,255)" fill-rule="nonzero" />
	</g>
</svg>
