<svg viewBox="0 0 108.8 108.8" xmlns="http://www.w3.org/2000/svg" xmlns:xlink="http://www.w3.org/1999/xlink" width="108.799805" height="108.799927" fill="none">
	<rect id="Icon / clear info" width="108.800011" height="108.800011" x="0.000000" y="0.000000" />
	<g id="Group">
		<path id="Vector" d="M70.1713 88.0798L70.1713 95.2001L38.6245 95.2001L38.6245 88.0798L46.1505 88.0798L47.4763 76.0418L47.7883 73.1748L47.7883 73.1178L60.988 73.1178L61.0075 73.1748L61.3195 76.0418L62.6453 88.0798L70.1713 88.0798Z" fill="rgb(139,92,246)" fill-rule="nonzero" />
		<path id="Vector" d="M61.3197 76.0418L47.4766 76.0418L47.7885 73.1748L47.7885 73.1178L60.9882 73.1178L61.0077 73.1748L61.3197 76.0418Z" fill="rgb(124,58,237)" fill-rule="nonzero" />
		<path id="Vector" d="M62.6375 88.0741L38.6206 88.0741L38.6206 95.1925L70.1751 95.1925L70.1751 88.0741L62.6375 88.0741Z" fill="rgb(167,139,250)" fill-rule="nonzero" />
		<path id="Vector" d="M96.5126 13.6L12.284 13.6C11.43 13.602 10.6118 13.9337 10.0087 14.5225C9.40558 15.1112 9.06689 15.9089 9.06689 16.7405L9.06689 70.0304C9.06689 70.862 9.40558 71.6596 10.0087 72.2484C10.6118 72.8371 11.43 73.1689 12.284 73.1709L96.3176 73.1709C96.7663 73.1711 97.2106 73.0852 97.6252 72.9182C98.0397 72.7511 98.4164 72.5061 98.7336 72.1971C99.0509 71.8881 99.3025 71.5213 99.4741 71.1176C99.6456 70.7139 99.7338 70.2812 99.7336 69.8443L99.7336 16.7405C99.7336 15.9082 99.3943 15.11 98.7904 14.5211C98.1865 13.9323 97.3672 13.601 96.5126 13.6Z" fill="rgb(196,181,253)" fill-rule="nonzero" />
		<path id="Vector" d="M15.0522 19.0421L93.7436 19.0421L93.7436 62.3902L15.0522 62.3902L15.0522 19.0421Z" fill="rgb(76,29,149)" fill-rule="nonzero" />
		<path id="Vector" d="M93.7438 19.0421L93.7438 58.4409L32.717 58.4409C29.6252 58.4393 26.6605 57.2426 24.4743 55.1136C22.2881 52.9845 21.0592 50.0973 21.0576 47.0864L21.0576 19.0421L93.7438 19.0421Z" fill="rgb(109,40,217)" fill-rule="nonzero" />
		<path id="Vector" d="M81.8503 49.5356C81.8752 49.4748 81.9079 49.4174 81.9477 49.3647L81.9477 49.3457C82.4967 48.4338 82.9413 47.466 83.2736 46.4596C84.178 43.6414 84.1606 40.6191 83.2236 37.8109C82.2867 35.0028 80.4765 32.5477 78.0438 30.7855C75.611 29.0232 72.6759 28.041 69.6447 27.9747C66.6135 27.9083 63.6361 28.7612 61.1245 30.4153C59.3899 31.5488 57.9322 33.0397 56.8546 34.7824C55.8567 36.3793 55.1917 38.152 54.8976 39.9993C54.6035 41.8466 54.6861 43.7322 55.1405 45.5484C55.595 47.3646 56.4125 49.0757 57.5463 50.5841C58.6801 52.0925 60.1081 53.3686 61.7485 54.3394C64.081 55.6675 66.7286 56.3808 69.4304 56.409C70.9582 56.4201 72.4762 56.1695 73.9148 55.6685C74.9382 55.3047 75.9293 54.8602 76.8784 54.3394L76.8979 54.3584L81.0898 58.4406L90.975 58.4406C86.7246 54.3204 81.8503 49.5546 81.8503 49.5356Z" fill="rgb(76,29,149)" fill-rule="nonzero" />
		<path id="Vector" d="M98.0333 67.6912C97.884 68.2837 97.5664 68.8232 97.1169 69.2482C96.46 69.8801 95.5738 70.2345 94.6505 70.2345C93.7271 70.2345 92.841 69.8801 92.1841 69.2482L85.1455 62.3937L93.7439 62.3937L93.7439 61.1595L97.1169 64.4444C97.5523 64.8573 97.8667 65.3759 98.0278 65.9466C98.1889 66.5173 98.1908 67.1195 98.0333 67.6912Z" fill="rgb(221,214,254)" fill-rule="nonzero" />
		<path id="Vector" d="M93.7436 61.1557L93.7436 62.3899L85.1453 62.3899L81.0898 58.4406L90.975 58.4406C91.9499 59.3899 92.9053 60.3203 93.7436 61.1557Z" fill="rgb(91,33,182)" fill-rule="nonzero" />
		<path id="Vector" d="M98.7057 62.9902L83.4237 48.1079C85.2682 45.1352 85.9313 41.6077 85.2879 38.1914C84.6445 34.7751 82.739 31.7064 79.9312 29.5647C77.1235 27.4229 73.6077 26.3563 70.0476 26.5662C66.4875 26.776 63.1296 28.2479 60.6076 30.7039C58.0857 33.1599 56.5742 36.43 56.3587 39.897C56.1432 43.3639 57.2385 46.7877 59.4378 49.522C61.6371 52.2564 64.7882 54.112 68.2963 54.7386C71.8043 55.3652 75.4266 54.7194 78.4791 52.9231L93.7612 67.8073C94.4171 68.4455 95.3063 68.804 96.2335 68.804C97.1606 68.804 98.0498 68.4455 98.7057 67.8073C99.3616 67.1685 99.7301 66.3021 99.7301 65.3988C99.7301 64.4954 99.3616 63.629 98.7057 62.9902Z" fill="rgb(167,139,250)" fill-rule="nonzero" />
		<path id="Vector" d="M70.9165 54.9679C78.9861 54.9679 85.5278 48.5973 85.5278 40.7388C85.5278 32.8802 78.9861 26.5096 70.9165 26.5096C62.8469 26.5096 56.3052 32.8802 56.3052 40.7388C56.3052 48.5973 62.8469 54.9679 70.9165 54.9679Z" fill="rgb(139,92,246)" fill-rule="nonzero" />
		<path id="Vector" d="M98.7057 62.9899L83.412 48.0924C82.7998 49.0721 82.0715 49.9784 81.2419 50.7924C80.8409 51.1817 80.4171 51.5482 79.9727 51.8899L94.5625 66.0943C95.2181 66.7324 96.107 67.0908 97.0338 67.0908C97.9607 67.0908 98.8496 66.7324 99.5051 66.0943L99.6884 65.9044C99.7707 65.3776 99.7246 64.8393 99.5539 64.3331C99.3832 63.8268 99.0927 63.3667 98.7057 62.9899Z" fill="rgb(196,181,253)" fill-rule="nonzero" />
		<path id="Vector" d="M70.916 26.5097C67.4343 26.5062 64.0666 27.7188 61.4247 29.9274C59.5753 32.8098 58.8464 36.2416 59.37 39.602C59.8935 42.9623 61.6349 46.0292 64.279 48.2476C66.9232 50.466 70.2954 51.6895 73.7855 51.6966C77.2756 51.7036 80.653 50.4939 83.3066 48.2862C84.6906 46.1322 85.457 43.6566 85.5263 41.1166C85.5956 38.5766 84.9652 36.0648 83.7006 33.8423C82.436 31.6198 80.5834 29.7676 78.3352 28.4781C76.087 27.1886 73.5252 26.5089 70.916 26.5097Z" fill="rgb(196,181,253)" fill-rule="nonzero" />
	</g>
</svg>
