<svg viewBox="0 0 75 75" xmlns="http://www.w3.org/2000/svg" xmlns:xlink="http://www.w3.org/1999/xlink" width="75.000000" height="75.000000" fill="none">
	<rect id="Icon / Quotes" width="75.000008" height="75.000008" x="0.000000" y="0.000000" />
	<path id="“" d="M35.2113 26.7857C35.2113 22.1429 35.9155 18.1548 37.324 14.8214C38.7324 11.3691 40.5517 8.57143 42.7817 6.42857C45.0117 4.16667 47.5352 2.55953 50.3521 1.60714C53.2864 0.535715 56.162 0 58.9789 0L58.9789 6.25001C55.9272 6.25001 53.0517 7.32143 50.3521 9.46429C47.77 11.4881 46.2441 14.2857 45.7747 17.8571C46.1268 17.7381 46.5376 17.6191 47.007 17.5C47.3592 17.381 47.77 17.2619 48.2394 17.1429C48.8263 17.0238 49.4718 16.9643 50.1761 16.9643C53.6972 16.9643 56.6315 18.3333 58.9789 21.0714C61.3263 23.6905 62.5 26.7857 62.5 30.3571C62.5 33.9286 61.2676 37.0833 58.8028 39.8214C56.4554 42.4405 53.2864 43.75 49.2958 43.75C44.8357 43.75 41.3732 42.0833 38.9085 38.75C36.4437 35.2976 35.2113 31.3095 35.2113 26.7857ZM0 26.7857C0 22.1429 0.704226 18.1548 2.11268 14.8214C3.52113 11.3691 5.34038 8.57143 7.57042 6.42857C9.80047 4.16667 12.3239 2.55953 15.1408 1.60714C18.0751 0.535715 20.9507 0 23.7676 0L23.7676 6.25001C20.716 6.25001 17.8404 7.32143 15.1408 9.46429C12.5587 11.4881 11.0329 14.2857 10.5634 17.8571C10.9155 17.7381 11.3263 17.6191 11.7958 17.5C12.1479 17.381 12.5587 17.2619 13.0282 17.1429C13.615 17.0238 14.2606 16.9643 14.9648 16.9643C18.4859 16.9643 21.4202 18.3333 23.7676 21.0714C26.115 23.6905 27.2887 26.7857 27.2887 30.3571C27.2887 33.9286 26.0563 37.0833 23.5916 39.8214C21.2441 42.4405 18.0751 43.75 14.0845 43.75C9.62442 43.75 6.16197 42.0833 3.69718 38.75C1.23239 35.2976 0 31.3095 0 26.7857Z" fill="rgb(237,233,254)" fill-rule="nonzero" transform="matrix(-1,8.74219e-08,-8.74236e-08,-1,68.75,59.375)" />
</svg>
